<svg width="36" height="36" viewBox="0 0 36 36" fill="none" xmlns="http://www.w3.org/2000/svg">
  <path 
    d="M18 3.00001C15.6131 3.00001 13.3239 3.76753 11.636 5.45547C9.94821 7.14342 9.18069 9.43262 9.18069 11.8195C9.18069 14.2063 8.41317 16.4955 6.72522 18.1835C5.03728 19.8714 2.74808 20.639 0.361328 20.639L0.361328 29.4573C2.74808 29.4573 5.03728 30.2248 6.72522 31.9128C8.41317 33.6007 9.18069 35.8899 9.18069 38.2767L26.8192 38.2767C26.8192 35.8899 27.5868 33.6007 29.2747 31.9128C30.9626 30.2248 33.2518 29.4573 35.6386 29.4573V20.639C33.2518 20.639 30.9626 19.8714 29.2747 18.1835C27.5868 16.4955 26.8192 14.2063 26.8192 11.8195C26.8192 9.43262 26.0517 7.14342 24.3638 5.45547C22.6758 3.76753 20.3866 3.00001 18 3.00001Z" 
    fill="url(#paint0_linear)" 
  />
  <defs>
    <linearGradient id="paint0_linear" x1="18" y1="3.00001" x2="18" y2="38.2767" gradientUnits="userSpaceOnUse">
      <stop stopColor="#4ADE80" />
      <stop offset="1" stopColor="#22C55E" />
    </linearGradient>
  </defs>
</svg> 